<svg width="17" height="18" viewBox="0 0 17 18" fill="none" xmlns="http://www.w3.org/2000/svg">
<path d="M1.66667 6.66667H13.3333V8.33333H15V3.33333C15 2.41667 14.25 1.66667 13.3333 1.66667H12.5V0H10.8333V1.66667H4.16667V0H2.5V1.66667H1.66667C0.741667 1.66667 0.00833333 2.41667 0.00833333 3.33333L0 15C0 15.9167 0.741667 16.6667 1.66667 16.6667H7.5V15H1.66667V6.66667ZM1.66667 3.33333H13.3333V5H1.66667V3.33333ZM16.5333 11.9L15.9417 12.4917L14.175 10.725L14.7667 10.1333C15.0917 9.80833 15.6167 9.80833 15.9417 10.1333L16.5333 10.725C16.8583 11.05 16.8583 11.575 16.5333 11.9ZM13.5833 11.3167L15.35 13.0833L10.9333 17.5H9.16667V15.7333L13.5833 11.3167Z" fill="white"/>
</svg>
