<svg width="16" height="15" viewBox="0 0 16 15" fill="none" xmlns="http://www.w3.org/2000/svg">
<path d="M12.1667 6.66667V0H3.83333V3.33333H0.5V15H7.16667V11.6667H8.83333V15H15.5V6.66667H12.1667ZM3.83333 13.3333H2.16667V11.6667H3.83333V13.3333ZM3.83333 10H2.16667V8.33333H3.83333V10ZM3.83333 6.66667H2.16667V5H3.83333V6.66667ZM7.16667 10H5.5V8.33333H7.16667V10ZM7.16667 6.66667H5.5V5H7.16667V6.66667ZM7.16667 3.33333H5.5V1.66667H7.16667V3.33333ZM10.5 10H8.83333V8.33333H10.5V10ZM10.5 6.66667H8.83333V5H10.5V6.66667ZM10.5 3.33333H8.83333V1.66667H10.5V3.33333ZM13.8333 13.3333H12.1667V11.6667H13.8333V13.3333ZM13.8333 10H12.1667V8.33333H13.8333V10Z" fill="white"/>
</svg>
