<svg width="18" height="18" viewBox="0 0 18 18" fill="none" xmlns="http://www.w3.org/2000/svg">
<path d="M15.1915 9.81669C15.2249 9.55002 15.2499 9.28335 15.2499 9.00002C15.2499 8.71669 15.2249 8.45002 15.1915 8.18335L16.9499 6.80835C17.1082 6.68335 17.1499 6.45835 17.0499 6.27502L15.3832 3.39169C15.3082 3.25835 15.1665 3.18335 15.0165 3.18335C14.9665 3.18335 14.9165 3.19169 14.8749 3.20835L12.7999 4.04169C12.3665 3.70835 11.8999 3.43335 11.3915 3.22502L11.0749 1.01669C11.0499 0.816687 10.8749 0.666687 10.6665 0.666687H7.3332C7.12487 0.666687 6.94987 0.816687 6.92487 1.01669L6.6082 3.22502C6.09987 3.43335 5.6332 3.71669 5.19987 4.04169L3.12487 3.20835C3.07487 3.19169 3.02487 3.18335 2.97487 3.18335C2.8332 3.18335 2.69153 3.25835 2.61653 3.39169L0.949866 6.27502C0.841533 6.45835 0.891533 6.68335 1.04987 6.80835L2.8082 8.18335C2.77487 8.45002 2.74987 8.72502 2.74987 9.00002C2.74987 9.27502 2.77487 9.55002 2.8082 9.81669L1.04987 11.1917C0.891533 11.3167 0.849866 11.5417 0.949866 11.725L2.61653 14.6084C2.69153 14.7417 2.8332 14.8167 2.9832 14.8167C3.0332 14.8167 3.0832 14.8084 3.12487 14.7917L5.19987 13.9584C5.6332 14.2917 6.09987 14.5667 6.6082 14.775L6.92487 16.9834C6.94987 17.1834 7.12487 17.3334 7.3332 17.3334H10.6665C10.8749 17.3334 11.0499 17.1834 11.0749 16.9834L11.3915 14.775C11.8999 14.5667 12.3665 14.2834 12.7999 13.9584L14.8749 14.7917C14.9249 14.8084 14.9749 14.8167 15.0249 14.8167C15.1665 14.8167 15.3082 14.7417 15.3832 14.6084L17.0499 11.725C17.1499 11.5417 17.1082 11.3167 16.9499 11.1917L15.1915 9.81669ZM13.5415 8.39169C13.5749 8.65002 13.5832 8.82502 13.5832 9.00002C13.5832 9.17502 13.5665 9.35835 13.5415 9.60835L13.4249 10.55L14.1665 11.1334L15.0665 11.8334L14.4832 12.8417L13.4249 12.4167L12.5582 12.0667L11.8082 12.6334C11.4499 12.9 11.1082 13.1 10.7665 13.2417L9.8832 13.6L9.74987 14.5417L9.5832 15.6667H8.41653L8.2582 14.5417L8.12487 13.6L7.24153 13.2417C6.8832 13.0917 6.54987 12.9 6.21653 12.65L5.4582 12.0667L4.57487 12.425L3.51653 12.85L2.9332 11.8417L3.8332 11.1417L4.57487 10.5584L4.4582 9.61669C4.4332 9.35835 4.41653 9.16669 4.41653 9.00002C4.41653 8.83335 4.4332 8.64169 4.4582 8.39169L4.57487 7.45002L3.8332 6.86669L2.9332 6.16669L3.51653 5.15835L4.57487 5.58335L5.44153 5.93335L6.19153 5.36669C6.54987 5.10002 6.89153 4.90002 7.2332 4.75835L8.11653 4.40002L8.24987 3.45835L8.41653 2.33335H9.57487L9.7332 3.45835L9.86653 4.40002L10.7499 4.75835C11.1082 4.90835 11.4415 5.10002 11.7749 5.35002L12.5332 5.93335L13.4165 5.57502L14.4749 5.15002L15.0582 6.15835L14.1665 6.86669L13.4249 7.45002L13.5415 8.39169ZM8.99987 5.66669C7.1582 5.66669 5.66653 7.15835 5.66653 9.00002C5.66653 10.8417 7.1582 12.3334 8.99987 12.3334C10.8415 12.3334 12.3332 10.8417 12.3332 9.00002C12.3332 7.15835 10.8415 5.66669 8.99987 5.66669ZM8.99987 10.6667C8.0832 10.6667 7.3332 9.91669 7.3332 9.00002C7.3332 8.08335 8.0832 7.33335 8.99987 7.33335C9.91653 7.33335 10.6665 8.08335 10.6665 9.00002C10.6665 9.91669 9.91653 10.6667 8.99987 10.6667Z" fill="white"/>
</svg>
