<svg width="411" height="49" viewBox="0 0 411 49" fill="none" xmlns="http://www.w3.org/2000/svg">
<path d="M48.832 11.928V1.816H0.512V11.928H16.576V47H32.832V11.928H48.832ZM101.471 47V36.76H69.407V29.528H98.527V19.352H69.407V11.928H100.895V1.816H53.215V47H101.471ZM174.815 47V1.816H153.439L142.047 31.32L130.655 1.816H109.215V47H125.087V18.2L135.711 47H148.191L158.879 18.072V47H174.815ZM185.342 1.816V47H201.47V31.064H213.694C218.622 31.064 224.894 31 229.246 28.056C234.75 24.408 235.006 18.392 235.006 16.216C235.006 12.44 234.11 10.136 233.406 8.664C230.142 2.072 223.486 1.816 216.318 1.816H185.342ZM201.47 12.056H213.246C215.166 12.056 217.15 12.248 218.238 14.168C218.43 14.552 218.814 15.32 218.814 16.472C218.814 18.584 217.662 20.12 215.678 20.632C214.782 20.888 213.886 20.888 212.03 20.888H201.47V12.056ZM299.454 24.216C299.454 17.368 296.83 12.696 295.358 10.52C291.646 5.144 285.182 0.151997 269.182 0.151997C259.07 0.151997 252.99 2.584 249.15 5.208C245.246 7.832 239.358 13.72 239.358 25.112C239.358 29.336 240.446 38.68 250.046 44.248C253.758 46.36 259.518 48.536 269.118 48.536C277.118 48.536 283.582 47.512 289.47 43.544C298.622 37.336 299.454 28.248 299.454 24.216ZM282.814 24.344C282.814 29.336 280.958 38.552 269.63 38.552C259.198 38.552 255.998 30.488 255.998 24.408C255.998 17.048 260.222 10.2 269.566 10.2C280.51 10.2 282.814 19.416 282.814 24.344ZM354.717 11.48V1.816H305.629V11.992H333.149L303.197 37.464V47H354.653V36.312H325.981L354.717 11.48ZM410.909 47V36.76H378.845V29.528H407.965V19.352H378.845V11.928H410.333V1.816H362.653V47H410.909Z" fill="#212025"/>
</svg>
