<svg width="24" height="14" viewBox="0 0 24 14" fill="none" xmlns="http://www.w3.org/2000/svg">
<path d="M0.583496 8.25H3.0835V5.75H0.583496V8.25ZM0.583496 13.25H3.0835V10.75H0.583496V13.25ZM0.583496 3.25H3.0835V0.75H0.583496V3.25ZM5.5835 8.25H23.0835V5.75H5.5835V8.25ZM5.5835 13.25H23.0835V10.75H5.5835V13.25ZM5.5835 0.75V3.25H23.0835V0.75H5.5835ZM0.583496 8.25H3.0835V5.75H0.583496V8.25ZM0.583496 13.25H3.0835V10.75H0.583496V13.25ZM0.583496 3.25H3.0835V0.75H0.583496V3.25ZM5.5835 8.25H23.0835V5.75H5.5835V8.25ZM5.5835 13.25H23.0835V10.75H5.5835V13.25ZM5.5835 0.75V3.25H23.0835V0.75H5.5835Z" fill="white"/>
</svg>
