<svg width="21" height="20" viewBox="0 0 21 20" fill="none" xmlns="http://www.w3.org/2000/svg">
<path d="M10.5 12.5C7.1625 12.5 0.5 14.175 0.5 17.5V20H20.5V17.5C20.5 14.175 13.8375 12.5 10.5 12.5ZM3 17.5C3.275 16.6 7.1375 15 10.5 15C13.875 15 17.75 16.6125 18 17.5H3ZM10.5 10C13.2625 10 15.5 7.7625 15.5 5C15.5 2.2375 13.2625 0 10.5 0C7.7375 0 5.5 2.2375 5.5 5C5.5 7.7625 7.7375 10 10.5 10ZM10.5 2.5C11.875 2.5 13 3.625 13 5C13 6.375 11.875 7.5 10.5 7.5C9.125 7.5 8 6.375 8 5C8 3.625 9.125 2.5 10.5 2.5Z" fill="white"/>
</svg>
