<svg width="413" height="309" viewBox="0 0 413 309" fill="none" xmlns="http://www.w3.org/2000/svg">
<path d="M109.029 0.00505426H303.929C303.929 2.09548 303.929 4.00412 303.929 5.91782C303.929 17.193 304.09 28.4682 303.894 39.7383C303.633 54.4571 297.961 66.9289 287.657 77.3104C281.569 83.4403 275.475 89.5701 269.362 95.6697C268.715 96.316 267.881 96.7806 266.652 97.6844C269.829 100.744 272.594 103.269 275.199 105.955C281.262 112.216 287.677 118.2 293.163 124.946C300.335 133.767 303.743 144.315 303.909 155.732C304.085 168.097 303.899 180.468 303.999 192.834C304.02 195.152 303.503 195.985 300.998 195.985C237.937 195.919 174.876 195.929 111.809 196C109.43 196 108.979 195.248 109.004 192.996C109.124 180.968 109.049 168.936 109.054 156.908C109.054 141.937 114.62 129.298 124.985 118.715C131.44 112.12 137.99 105.617 144.489 99.0679C144.836 98.7195 145.157 98.3358 145.714 97.7198C140.61 92.6452 135.42 87.7675 130.571 82.5718C125.838 77.5022 120.899 72.4832 117.029 66.7673C111.217 58.1885 108.893 48.3373 109.004 37.8852C109.139 25.3578 109.034 12.8304 109.034 0L109.029 0.00505426ZM179.212 97.8612C178.72 98.3964 178.399 98.7801 178.048 99.1336C169.239 107.995 160.405 116.837 151.627 125.728C147.33 130.081 142.858 134.307 138.938 138.988C130.812 148.688 132.88 160.443 132.785 172.096C134.07 172.096 135.134 172.096 136.198 172.096C155.923 172.086 175.654 172.071 195.379 172.061C209.423 172.056 223.466 172.021 237.51 172.086C239.533 172.096 240.316 171.571 240.221 169.415C240.06 165.638 240.2 161.846 240.185 158.064C240.145 149.152 237.008 141.533 230.714 135.241C226.92 131.449 223.14 127.637 219.346 123.835C210.758 115.231 202.17 106.627 193.201 97.639C194.119 96.9371 194.927 96.4524 195.575 95.801C207.475 83.8593 219.361 71.9076 231.236 59.9407C235.342 55.8053 238.454 50.9225 239.227 45.1511C240.035 39.1071 239.829 32.9318 240.261 26.8322C240.446 24.2368 239.568 23.6157 237.058 23.6208C203.455 23.7117 169.846 23.6965 136.243 23.7066C135.119 23.7066 133.994 23.7066 132.8 23.7066C132.8 29.4629 132.694 34.7546 132.825 40.0463C133.011 47.8121 136.258 54.3056 141.493 59.8447C144.259 62.7683 147.16 65.5606 149.995 68.4185C159.678 78.1788 169.365 87.9392 179.212 97.8662V97.8612Z" fill="white"/>
<path d="M48.832 255.928V245.816H0.512V255.928H16.576V291H32.832V255.928H48.832ZM101.471 291V280.76H69.407V273.528H98.527V263.352H69.407V255.928H100.895V245.816H53.215V291H101.471ZM174.815 291V245.816H153.439L142.047 275.32L130.655 245.816H109.215V291H125.087V262.2L135.711 291H148.191L158.879 262.072V291H174.815ZM185.342 245.816V291H201.47V275.064H213.694C218.622 275.064 224.894 275 229.246 272.056C234.75 268.408 235.006 262.392 235.006 260.216C235.006 256.44 234.11 254.136 233.406 252.664C230.142 246.072 223.486 245.816 216.318 245.816H185.342ZM201.47 256.056H213.246C215.166 256.056 217.15 256.248 218.238 258.168C218.43 258.552 218.814 259.32 218.814 260.472C218.814 262.584 217.662 264.12 215.678 264.632C214.782 264.888 213.886 264.888 212.03 264.888H201.47V256.056ZM299.454 268.216C299.454 261.368 296.83 256.696 295.358 254.52C291.646 249.144 285.182 244.152 269.182 244.152C259.07 244.152 252.99 246.584 249.15 249.208C245.246 251.832 239.358 257.72 239.358 269.112C239.358 273.336 240.446 282.68 250.046 288.248C253.758 290.36 259.518 292.536 269.118 292.536C277.118 292.536 283.582 291.512 289.47 287.544C298.622 281.336 299.454 272.248 299.454 268.216ZM282.814 268.344C282.814 273.336 280.958 282.552 269.63 282.552C259.198 282.552 255.998 274.488 255.998 268.408C255.998 261.048 260.222 254.2 269.566 254.2C280.51 254.2 282.814 263.416 282.814 268.344ZM354.717 255.48V245.816H305.629V255.992H333.149L303.197 281.464V291H354.653V280.312H325.981L354.717 255.48ZM410.909 291V280.76H378.845V273.528H407.965V263.352H378.845V255.928H410.333V245.816H362.653V291H410.909Z" fill="white"/>
</svg>
