<svg width="20" height="22" viewBox="0 0 20 22" fill="none" xmlns="http://www.w3.org/2000/svg">
<path d="M19.8749 10.3649C19.7956 10.1603 19.6766 9.97328 19.5248 9.8147L11.188 1.47791C11.0325 1.32244 10.848 1.19912 10.6448 1.11499C10.4417 1.03085 10.224 0.987549 10.0042 0.987549C9.56014 0.987549 9.1343 1.16394 8.82033 1.47791C8.66487 1.63337 8.54155 1.81793 8.45741 2.02105C8.37328 2.22417 8.32998 2.44187 8.32998 2.66173C8.32998 3.10575 8.50636 3.53159 8.82033 3.84556L14.3226 9.33117H1.66736C1.22515 9.33117 0.801049 9.50684 0.488359 9.81953C0.175668 10.1322 0 10.5563 0 10.9985C0 11.4407 0.175668 11.8648 0.488359 12.1775C0.801049 12.4902 1.22515 12.6659 1.66736 12.6659H14.3226L8.82033 18.1515C8.66405 18.3065 8.54001 18.4909 8.45536 18.6941C8.37071 18.8973 8.32713 19.1152 8.32713 19.3353C8.32713 19.5554 8.37071 19.7734 8.45536 19.9766C8.54001 20.1797 8.66405 20.3641 8.82033 20.5191C8.97534 20.6754 9.15975 20.7995 9.36293 20.8841C9.56611 20.9688 9.78405 21.0124 10.0042 21.0124C10.2243 21.0124 10.4422 20.9688 10.6454 20.8841C10.8486 20.7995 11.033 20.6754 11.188 20.5191L19.5248 12.1824C19.6766 12.0238 19.7956 11.8368 19.8749 11.6321C20.0417 11.2262 20.0417 10.7709 19.8749 10.3649Z" fill="white"/>
</svg>
