<svg width="54" height="54" viewBox="0 0 54 54" fill="none" xmlns="http://www.w3.org/2000/svg">
<path d="M29.6668 16.3333H35.0002V37.6667H29.6668V16.3333ZM19.0002 16.3333H24.3335V37.6667H19.0002V16.3333ZM27.0002 53.6667C41.7202 53.6667 53.6668 41.72 53.6668 27C53.6668 12.28 41.7202 0.333344 27.0002 0.333344C12.2802 0.333344 0.333496 12.28 0.333496 27C0.333496 41.72 12.2802 53.6667 27.0002 53.6667ZM27.0002 5.66668C38.7602 5.66668 48.3335 15.24 48.3335 27C48.3335 38.76 38.7602 48.3333 27.0002 48.3333C15.2402 48.3333 5.66683 38.76 5.66683 27C5.66683 15.24 15.2402 5.66668 27.0002 5.66668Z" fill="white"/>
</svg>
