<svg width="195" height="196" viewBox="0 0 195 196" fill="none" xmlns="http://www.w3.org/2000/svg">
<path d="M0.0288343 0.00505427H194.929C194.929 2.09548 194.929 4.00412 194.929 5.91782C194.929 17.193 195.09 28.4682 194.894 39.7383C194.633 54.4571 188.961 66.9289 178.657 77.3104C172.569 83.4403 166.475 89.5701 160.362 95.6697C159.715 96.316 158.881 96.7806 157.652 97.6844C160.829 100.744 163.594 103.269 166.199 105.955C172.262 112.216 178.677 118.2 184.163 124.946C191.335 133.767 194.743 144.315 194.909 155.732C195.085 168.097 194.899 180.468 194.999 192.834C195.02 195.152 194.503 195.985 191.998 195.985C128.937 195.919 65.8756 195.929 2.80946 196C0.430359 196 -0.0213515 195.248 0.00374443 192.996C0.124205 180.968 0.0489049 168.936 0.0539241 156.908C0.0539241 141.937 5.62021 129.298 15.9848 118.715C22.4395 112.12 28.9896 105.617 35.4895 99.0679C35.8358 98.7195 36.157 98.3358 36.7141 97.7198C31.6096 92.6452 26.4198 87.7675 21.5712 82.5718C16.8381 77.5022 11.8992 72.4832 8.02943 66.7673C2.2172 58.1885 -0.106678 48.3373 0.00374443 37.8852C0.139263 25.3578 0.0338584 12.8304 0.0338584 0L0.0288343 0.00505427ZM70.2122 97.8612C69.7204 98.3964 69.3991 98.7801 69.0478 99.1336C60.2391 107.995 51.4053 116.837 42.6267 125.728C38.3303 130.081 33.8582 134.307 29.9382 138.988C21.8122 148.688 23.8801 160.443 23.7847 172.096C25.0696 172.096 26.1337 172.096 27.1977 172.096C46.9232 172.086 66.6536 172.071 86.379 172.061C100.423 172.056 114.466 172.021 128.51 172.086C130.533 172.096 131.316 171.571 131.221 169.415C131.06 165.638 131.2 161.846 131.185 158.064C131.145 149.152 128.008 141.533 121.714 135.241C117.92 131.449 114.14 127.637 110.346 123.835C101.758 115.231 93.17 106.627 84.2007 97.639C85.1192 96.9371 85.9273 96.4524 86.5748 95.801C98.4753 83.8593 110.361 71.9076 122.236 59.9407C126.342 55.8053 129.454 50.9225 130.227 45.1512C131.035 39.1071 130.829 32.9318 131.261 26.8322C131.446 24.2368 130.568 23.6157 128.058 23.6208C94.4549 23.7117 60.8464 23.6965 27.2429 23.7066C26.1186 23.7066 24.9943 23.7066 23.7997 23.7066C23.7997 29.4629 23.6944 34.7546 23.8249 40.0463C24.0106 47.8121 27.258 54.3056 32.493 59.8447C35.2586 62.7683 38.1597 65.5606 40.9955 68.4185C50.6775 78.1788 60.3646 87.9392 70.2122 97.8662V97.8612Z" fill="#212025"/>
</svg>
